<?xml version="1.0" encoding="iso-8859-1"?>
<!-- Generator: Adobe Illustrator 18.0.0, SVG Export Plug-In . SVG Version: 6.00 Build 0)  -->
<!DOCTYPE svg PUBLIC "-//W3C//DTD SVG 1.1//EN" "http://www.w3.org/Graphics/SVG/1.1/DTD/svg11.dtd">
<svg version="1.1" id="Capa_1" xmlns="http://www.w3.org/2000/svg" xmlns:xlink="http://www.w3.org/1999/xlink" x="0px" y="0px"
	 viewBox="0 0 444.164 444.164" style="enable-background:new 0 0 444.164 444.164;" xml:space="preserve">
<g>
	<g>
		<g>
			<g>
				<path d="M195.374,39.609c-10.918,0-19.801-8.885-19.801-19.806C175.573,8.884,184.456,0,195.374,0
					c10.92,0,19.804,8.884,19.804,19.803C215.177,30.724,206.294,39.609,195.374,39.609z M195.374,10
					c-5.404,0-9.801,4.397-9.801,9.803c0,5.407,4.396,9.806,9.801,9.806c5.406,0,9.804-4.399,9.804-9.806
					C205.177,14.397,200.78,10,195.374,10z"/>
			</g>
			<g>
				<path d="M240.878,104.521c-16.361,0-29.673-13.313-29.673-29.676c0-16.362,13.312-29.674,29.673-29.674
					c16.362,0,29.675,13.312,29.675,29.674C270.552,91.209,257.24,104.521,240.878,104.521z M240.878,55.172
					c-10.848,0-19.673,8.826-19.673,19.674c0,10.849,8.825,19.676,19.673,19.676c10.849,0,19.675-8.827,19.675-19.676
					C260.552,63.998,251.726,55.172,240.878,55.172z"/>
			</g>
		</g>
		<g>
			<path d="M80.72,337.48c-1.88,0-3.682-1.065-4.532-2.881c-5.733-12.243-8.64-25.032-8.64-38.011
				c0-18.477,5.779-36.259,17.177-52.855c1.563-2.276,4.678-2.854,6.952-1.291c2.276,1.563,2.854,4.676,1.291,6.952
				c-10.232,14.898-15.42,30.776-15.42,47.194c0,11.503,2.589,22.865,7.696,33.771c1.171,2.5,0.093,5.477-2.408,6.648
				C82.152,337.328,81.43,337.48,80.72,337.48z"/>
		</g>
		<path d="M408.781,296.337c0-34.492-14.968-67.433-42.384-93.826c8.182-2.895,14.069-10.687,14.069-19.848
			c0-11.618-9.451-21.07-21.069-21.07h-29.81l48.943-112.988c4.19-8.76,0.515-19.311-8.231-23.567
			c-4.252-2.069-9.06-2.358-13.529-0.813c-4.472,1.545-8.073,4.739-10.142,8.993c-0.03,0.062-0.059,0.123-0.086,0.186
			l-55.995,128.188H224.2c1.469-4.377,2.254-8.984,2.256-13.644c0-23.711-19.291-43.002-43.002-43.002
			c-23.712,0-43.004,19.291-43.004,43.002c0,4.654,0.771,9.265,2.24,13.644h-57.92c-11.619,0-21.071,9.452-21.071,21.07
			c0,9.162,5.889,16.954,14.073,19.849c-27.419,26.393-42.387,59.333-42.387,93.825c0,39.717,19.578,76.98,55.128,104.925
			c2.262,1.778,4.574,3.503,6.929,5.178l-5.791,5.791c-7.227,7.229-7.227,18.99,0.001,26.218c3.615,3.613,8.362,5.42,13.109,5.42
			c4.747,0,9.496-1.807,13.109-5.421l13.025-13.025c27.547,12.23,58.742,18.741,91.188,18.741c32.446,0,63.642-6.51,91.189-18.741
			l13.027,13.025c3.502,3.502,8.157,5.43,13.109,5.431c4.952,0,9.607-1.929,13.107-5.43c3.502-3.501,5.43-8.157,5.43-13.109
			c0-4.952-1.928-9.607-5.43-13.109l-5.791-5.79c2.355-1.675,4.666-3.4,6.929-5.178
			C389.203,373.317,408.781,336.054,408.781,296.337z M355.661,37.514c0.907-1.812,2.457-3.172,4.375-3.835
			c1.946-0.673,4.038-0.547,5.89,0.354c3.823,1.86,5.421,6.484,3.561,10.307c-0.032,0.066-0.063,0.132-0.092,0.2l-50.706,117.055
			h-17.227L355.661,37.514z M183.454,114.948c18.197,0,33.002,14.805,33.002,33c-0.002,4.725-1.029,9.385-2.963,13.646h-60.081
			c-1.935-4.264-2.962-8.924-2.962-13.644C150.45,129.753,165.256,114.948,183.454,114.948z M73.698,182.664
			c0-6.104,4.966-11.07,11.071-11.07h274.628c6.104,0,11.069,4.966,11.069,11.07c0,6.103-4.966,11.068-11.069,11.068H84.769
			C78.664,193.732,73.698,188.767,73.698,182.664z M110.797,431.377c-3.33,3.33-8.748,3.329-12.076,0.001
			c-3.329-3.329-3.329-8.747,0-12.076l7.194-7.194c4.967,3.135,10.106,6.054,15.402,8.75L110.797,431.377z M45.384,296.337
			c0-34.355,16.283-67.175,45.901-92.605h261.6c29.614,25.43,45.896,58.248,45.896,92.605c0,75.998-79.267,137.827-176.699,137.827
			C124.65,434.164,45.384,372.335,45.384,296.337z M345.443,419.302c1.613,1.613,2.501,3.758,2.501,6.039s-0.888,4.425-2.501,6.038
			c-1.612,1.613-3.756,2.501-6.036,2.501c-2.281,0-4.426-0.889-6.039-2.502l-10.521-10.52c5.297-2.696,10.436-5.615,15.403-8.749
			L345.443,419.302z"/>
	</g>
</g>
<g>
</g>
<g>
</g>
<g>
</g>
<g>
</g>
<g>
</g>
<g>
</g>
<g>
</g>
<g>
</g>
<g>
</g>
<g>
</g>
<g>
</g>
<g>
</g>
<g>
</g>
<g>
</g>
<g>
</g>
</svg>
