<?xml version="1.0" encoding="iso-8859-1"?>
<!-- Generator: Adobe Illustrator 19.0.0, SVG Export Plug-In . SVG Version: 6.00 Build 0)  -->
<svg version="1.1" id="Capa_1" xmlns="http://www.w3.org/2000/svg" xmlns:xlink="http://www.w3.org/1999/xlink" x="0px" y="0px"
	 viewBox="0 0 512 512" style="enable-background:new 0 0 512 512;" xml:space="preserve">
<g>
	<g>
		<path d="M170,366c-5.52,0-10,4.48-10,10c0,5.52,4.48,10,10,10s10-4.48,10-10C180,370.48,175.52,366,170,366z"/>
	</g>
</g>
<g>
	<g>
		<path d="M472,0H100C77.944,0,60,17.944,60,40v296c0,4.305,2.754,8.126,6.838,9.487L98.377,356l-31.539,10.513
			C62.754,367.874,60,371.695,60,376v56H10c-5.523,0-10,4.478-10,10v30c0,22.097,17.898,40,40,40h360c22.056,0,40-17.944,40-40V156
			c0-3.788-2.14-7.25-5.528-8.944L412.361,136l22.111-11.056C437.86,123.25,440,119.788,440,116V80h62c5.523,0,10-4.478,10-10V40
			C512,17.944,494.056,0,472,0z M60,472c0,11.028-8.972,20-20,20c-11.045,0-20-8.954-20-20v-20h40V472z M420,109.819l-34.472,17.237
			C382.14,128.75,380,132.212,380,136c0,3.788,2.14,7.25,5.528,8.944L420,162.181V472c0,11.028-8.972,20-20,20H74.619
			C78.034,486.112,80,479.283,80,472v-88.792l53.162-17.721c4.083-1.361,6.838-5.183,6.838-9.487c0-4.304-2.754-8.126-6.838-9.487
			L80,328.792V40c0-11.028,8.972-20,20-20s20,8.972,20,20v30c0,5.522,4.477,10,10,10h290V109.819z M492,60c-3.826,0-332.645,0-352,0
			V40c0-7.283-1.966-14.112-5.381-20H472c11.028,0,20,8.972,20,20V60z"/>
	</g>
</g>
<g>
	<g>
		<path d="M350,432H150c-5.523,0-10,4.478-10,10c0,5.522,4.477,10,10,10h200c5.523,0,10-4.478,10-10
			C360,436.478,355.523,432,350,432z"/>
	</g>
</g>
<g>
	<g>
		<path d="M350,366H210c-5.523,0-10,4.478-10,10c0,5.522,4.477,10,10,10h140c5.523,0,10-4.478,10-10
			C360,370.478,355.523,366,350,366z"/>
	</g>
</g>
<g>
	<g>
		<path d="M253.662,185.803l-40.256-13.418l-13.419-40.257c-1.361-4.084-5.183-6.838-9.487-6.838s-8.125,2.754-9.487,6.838
			l-13.419,40.257l-40.256,13.418c-4.083,1.361-6.838,5.183-6.838,9.487s2.754,8.126,6.838,9.487l40.256,13.418l13.419,40.257
			c1.361,4.084,5.183,6.838,9.487,6.838s8.125-2.754,9.487-6.838l13.419-40.257l40.256-13.418c4.083-1.361,6.838-5.183,6.838-9.487
			S257.746,187.164,253.662,185.803z M202.338,200.803c-2.986,0.996-5.33,3.339-6.325,6.325l-5.513,16.539l-5.513-16.539
			c-0.995-2.986-3.338-5.329-6.325-6.325l-16.54-5.513l16.54-5.513c2.986-0.996,5.33-3.339,6.325-6.325l5.513-16.539l5.513,16.539
			c0.995,2.986,3.338,5.329,6.325,6.325l16.54,5.513L202.338,200.803z"/>
	</g>
</g>
<g>
	<g>
		<path d="M393.662,265.803l-40.256-13.418l-13.419-40.257c-1.361-4.084-5.183-6.838-9.487-6.838c-4.304,0-8.125,2.754-9.487,6.838
			l-13.419,40.257l-40.256,13.418c-4.083,1.361-6.838,5.183-6.838,9.487c0,4.304,2.754,8.126,6.838,9.487l40.256,13.418
			l13.419,40.257c1.361,4.084,5.183,6.838,9.487,6.838c4.304,0,8.125-2.754,9.487-6.838l13.419-40.257l40.256-13.418
			c4.083-1.361,6.838-5.183,6.838-9.487C400.5,270.986,397.746,267.164,393.662,265.803z M342.338,280.803
			c-2.986,0.996-5.33,3.339-6.325,6.325l-5.513,16.539l-5.513-16.539c-0.995-2.986-3.338-5.329-6.325-6.325l-16.54-5.513
			l16.54-5.513c2.986-0.996,5.33-3.339,6.325-6.325l5.513-16.539l5.513,16.539c0.995,2.986,3.338,5.329,6.325,6.325l16.54,5.513
			L342.338,280.803z"/>
	</g>
</g>
<g>
</g>
<g>
</g>
<g>
</g>
<g>
</g>
<g>
</g>
<g>
</g>
<g>
</g>
<g>
</g>
<g>
</g>
<g>
</g>
<g>
</g>
<g>
</g>
<g>
</g>
<g>
</g>
<g>
</g>
</svg>
