<?xml version="1.0" encoding="iso-8859-1"?>
<!-- Generator: Adobe Illustrator 19.0.0, SVG Export Plug-In . SVG Version: 6.00 Build 0)  -->
<svg version="1.1" id="Capa_1" xmlns="http://www.w3.org/2000/svg" xmlns:xlink="http://www.w3.org/1999/xlink" x="0px" y="0px"
	 viewBox="0 0 512.003 512.003" style="enable-background:new 0 0 512.003 512.003;" xml:space="preserve">
<g>
	<g>
		<path d="M510.794,224.86c-14.354-22.13-27.379-36.294-35.901-44.367l25.277-9.678c2.352-0.9,4.094-2.92,4.64-5.378
			c0.546-2.458-0.178-5.025-1.927-6.836c-1.788-1.852-40.482-41.519-90.723-62.215l28.702-15.118
			c2.523-1.329,4.075-3.975,4.003-6.827c-0.073-2.852-1.757-5.415-4.346-6.614c-2.6-1.205-63.555-28.894-132.886-14.079
			c-14.572-22.738-31.979-28.898-33.228-29.315c-2.291-0.764-4.803-0.379-6.758,1.031c-1.955,1.41-3.114,3.674-3.114,6.084V68.84
			c-22.131,11.117-42.086,27.03-59.416,47.364L11.332,1.052c-3.165-1.88-7.229-1.185-9.589,1.641
			c-2.359,2.827-2.318,6.949,0.099,9.728l155.745,179.107L2.494,330.577c-1.587,1.422-2.493,3.453-2.493,5.584
			c0,11.718,3.672,20.525,10.912,26.179c3.08,2.405,6.458,3.939,9.81,4.893l8.952,18.246c2.823,5.756,7.938,10.167,14.034,12.103
			c2.345,0.745,4.741,1.114,7.124,1.114c3.858,0,7.678-0.969,11.174-2.879c1.876-1.025,3.859-2.169,5.92-3.41l24.092,14.591
			c3.774,2.286,7.978,3.436,12.188,3.436c3.704,0,7.413-0.89,10.842-2.68c21.554-11.251,96.07-48.551,150.015-56.149
			c9.242-1.302,18.097-3.437,26.469-6.317l61.669,161.883c1.14,2.992,3.988,4.832,7.01,4.832c0.888,0,1.79-0.159,2.669-0.493
			c3.871-1.475,5.813-5.808,4.339-9.679l-61.798-162.22c20.832-9.974,37.715-25.081,48.565-44.024
			c15.827-27.633,17.179-60.736,3.807-93.211c-1.579-3.83-5.962-5.658-9.791-4.08c-3.83,1.577-5.656,5.96-4.08,9.791
			c11.569,28.096,10.521,56.523-2.951,80.046c-14.9,26.015-43.33,43.735-78,48.618c-54.781,7.716-126.551,42.926-154.864,57.706
			c-2.636,1.376-5.745,1.27-8.318-0.29l-17.956-10.875c14.445-10.181,30.499-23.622,43.48-38.119
			c2.764-3.086,2.502-7.827-0.584-10.59c-3.084-2.764-7.826-2.501-10.59,0.583c-18.267,20.397-42.956,38.547-59.322,47.486
			c-2.03,1.107-4.364,1.333-6.569,0.632c-2.247-0.713-4.061-2.28-5.106-4.412l-5.261-10.724c1.815-0.262,3.069-0.555,3.504-0.664
			c4.019-1.004,6.461-5.077,5.457-9.095c-1.005-4.019-5.08-6.462-9.096-5.457c-0.108,0.027-11.271,2.526-17.602-2.417
			c-2.852-2.226-4.528-5.963-5.003-11.133l229.77-206c6.113-5.23,12.689-9.414,19.622-12.555v6.913c0,4.142,3.357,7.5,7.5,7.5
			s7.5-3.358,7.5-7.5V44.62c3.436,2.678,7.423,6.42,11.39,11.536c14.201,18.318,21.707,45.843,21.707,79.601
			c0,4.142,3.357,7.5,7.5,7.5s7.5-3.358,7.5-7.5c0-5.182-0.168-10.119-0.471-14.844c4.273,1.206,8.586,2.837,12.894,4.891
			c1.041,0.497,2.14,0.732,3.223,0.732c2.801,0,5.488-1.577,6.774-4.274c1.783-3.739,0.197-8.215-3.542-9.998
			c-6.974-3.326-14.014-5.724-20.986-7.182c-2.199-15.057-5.956-27.405-10.469-37.509c43.154-8.06,83.138,1.439,104.021,8.219
			l-28.957,15.252c-2.688,1.416-4.257,4.314-3.972,7.339c0.285,3.025,2.367,5.58,5.273,6.468
			c40.573,12.411,76.572,41.947,92.293,56.205l-25.98,9.947c-2.591,0.992-4.412,3.339-4.752,6.092s0.877,5.475,3.148,7.067
			c0.19,0.133,19.309,13.754,42.082,48.862c1.437,2.214,3.843,3.419,6.299,3.419c1.398,0,2.813-0.391,4.074-1.209
			C512.059,232.98,513.048,228.336,510.794,224.86z M168.756,181.514L43.764,37.772l171.591,101.964L168.756,181.514z
			 M264.533,104.606c-10.559,3.879-20.443,9.726-29.445,17.442c-0.042,0.036-0.084,0.073-0.126,0.11l-7.903,7.085l-8.85-5.259
			c13.815-15.802,29.346-28.581,46.324-38.146V104.606z"/>
	</g>
</g>
<g>
	<g>
		<path d="M511.628,369.897c-0.142-0.431-14.404-43.68-38.207-94.356c-32.169-68.488-65.563-117.351-99.256-145.233
			c-3.188-2.64-7.917-2.194-10.56,0.997c-2.641,3.191-2.194,7.919,0.997,10.56c76.575,63.369,132.219,231.02,132.771,232.707
			c1.037,3.16,3.972,5.164,7.126,5.164c0.774,0,1.563-0.121,2.338-0.375C510.773,378.069,512.918,373.833,511.628,369.897z"/>
	</g>
</g>
<g>
	<g>
		<path d="M269.611,202.906c-2.761-3.088-7.502-3.356-10.59-0.595c-4.349,3.885-11.471,6.205-19.052,6.205
			c-7.581,0-14.703-2.32-19.052-6.205c-3.089-2.761-7.831-2.493-10.59,0.595c-2.76,3.089-2.493,7.83,0.596,10.59
			c7.126,6.368,17.713,10.021,29.046,10.021s21.92-3.652,29.046-10.021C272.104,210.736,272.37,205.995,269.611,202.906z"/>
	</g>
</g>
<g>
</g>
<g>
</g>
<g>
</g>
<g>
</g>
<g>
</g>
<g>
</g>
<g>
</g>
<g>
</g>
<g>
</g>
<g>
</g>
<g>
</g>
<g>
</g>
<g>
</g>
<g>
</g>
<g>
</g>
</svg>
