<?xml version="1.0" encoding="iso-8859-1"?>
<!-- Generator: Adobe Illustrator 18.0.0, SVG Export Plug-In . SVG Version: 6.00 Build 0)  -->
<!DOCTYPE svg PUBLIC "-//W3C//DTD SVG 1.1//EN" "http://www.w3.org/Graphics/SVG/1.1/DTD/svg11.dtd">
<svg version="1.1" id="Capa_1" xmlns="http://www.w3.org/2000/svg" xmlns:xlink="http://www.w3.org/1999/xlink" x="0px" y="0px"
	 viewBox="0 0 442.596 442.596" style="enable-background:new 0 0 442.596 442.596;" xml:space="preserve">
<g>
	<g>
		<g>
			<g>
				<path d="M264.543,100.021c-1.31,0-2.601-0.54-3.53-1.47c-0.93-0.93-1.47-2.22-1.47-3.53c0-1.32,0.54-2.61,1.47-3.54
					c0.93-0.93,2.22-1.46,3.53-1.46c1.319,0,2.609,0.53,3.54,1.46c0.93,0.93,1.46,2.22,1.46,3.54c0,1.31-0.53,2.6-1.46,3.53
					C267.152,99.481,265.862,100.021,264.543,100.021z"/>
			</g>
			<path d="M422.932,181.222c-3.333-5.854-10.809-7.905-16.652-4.58l-57.287,32.466c-1.632-6.8-7.132-10.841-15.678-11.276
				c-9.619-0.489-16.642-2.785-17.601-3.112c-1.744-0.761-22.299-9.947-28.494-22.502c-4.842-10.144-9.68-23.151-12.056-29.776
				c8.469-4.407,18.52-13.276,14.38-25.384c-0.988-2.891-0.37-4.311,0.182-5.127c2.446-3.623,10.7-5.192,14.305-5.384
				c1.557-0.077,2.988-0.876,3.872-2.16c0.884-1.284,1.117-2.906,0.634-4.388c-5.796-17.731-21.137-22.695-30.334-23.016
				l-1.748-1.969c14.117-10.243,28.771-25.626,34.199-47.344c0.477-1.905-0.206-3.912-1.745-5.131
				c-1.539-1.219-3.648-1.424-5.395-0.526l-41.678,21.472C251.486,33.645,213.059,0,171.459,0c-26.883,0-49.461,13.943-67.11,41.442
				c-1.237,1.928-1.006,4.45,0.561,6.121s4.068,2.063,6.072,0.953c0.17-0.094,17.217-9.426,35.83-9.426
				c21.157,0,35.534,12.147,42.789,36.109l-39.395,16.005c-1.428,0.58-2.509,1.787-2.929,3.27c-0.42,1.483-0.133,3.077,0.778,4.32
				c0.751,1.024,4.401,5.28,14.33,7.529c-6.208,8.121-14.398,23.119-15.294,46.454c-0.076,1.967,1.011,3.796,2.774,4.671
				c1.766,0.874,3.877,0.633,5.398-0.618c2.511-2.065,8.825-6.435,15.771-9.038c-2.505,7.091-4.013,17.485,0.573,30.021
				c0.732,2.001,2.629,3.283,4.692,3.283c0.319,0,0.643-0.031,0.965-0.094c0.236-0.046,3.873-0.765,9.277-2.09
				c-6.798,15.044-12.634,37.031-10.881,66.853c1.359,23.114,9.037,41.079,18.342,54.632l-31.648,18.425l-4.095-7.193
				c-0.76-1.334-2.09-2.246-3.608-2.472c-1.52-0.224-3.057,0.258-4.173,1.312c0,0-14.49,13.72-14.529,13.76l-9.303,5.296
				C85.643,320.766,23.885,353.954,23.805,354c-3.8,2.163-7.69,7.719-4.645,21.908c1.985,9.247,6.506,20.36,12.729,31.292
				c0.001,0.001,0.002,0.003,0.002,0.003c10.369,18.216,25.361,35.393,36.675,35.393c1.743,0,3.399-0.408,4.938-1.284
				c0.081-0.046,0.16-0.094,0.238-0.145c2.608-1.683,62.788-40.854,73.315-75.789l9.288-5.288c0.06-0.015,19.265-5.476,19.265-5.476
				c1.477-0.421,2.678-1.497,3.259-2.918c0.58-1.421,0.476-3.031-0.283-4.365l-4.143-7.277l35.917-20.903
				c0.625,0.571,1.247,1.131,1.862,1.669c16.691,14.584,32.767,20.277,33.443,20.512c0.531,0.185,1.087,0.277,1.643,0.277
				c0.542,0,1.084-0.088,1.604-0.264c19.311-6.54,35.605-14.298,49.289-22.411l57.355,4.632
				c3.556,5.474,10.985,11.723,22.596,11.722c4.126,0,8.783-0.79,13.98-2.685c1.368-0.499,2.451-1.57,2.966-2.933l5.207-13.807
				c0.341-0.904,0.412-1.887,0.206-2.831c-0.357-1.638-1.163-2.932-2.147-3.969c3.197-0.968,6.332-2.092,8.298-4.281
				c7.31-8.14,10.615-17.003,9.821-26.341c-1.04-12.226-9.181-22.73-16.452-28.485c-1.566-1.24-3.723-1.428-5.483-0.476
				c-1.758,0.952-2.78,2.86-2.599,4.852c0.013,0.136,1.04,13.886-6.34,22.631c-3.583,4.247-8.729,6.749-15.307,7.446l-21.977-7.097
				c9.264-11.034,13.238-18.901,13.646-19.732c0.721-1.469,0.677-3.197-0.117-4.628c-0.794-1.431-2.237-2.382-3.864-2.548
				c-6.814-0.695-13.181-3.088-18.793-6.132l79.162-46.394C424.213,194.546,426.264,187.073,422.932,181.222z M318.904,205.934
				c3.561,0.794,8.331,1.603,13.902,1.886c6.249,0.318,6.732,2.885,6.701,6.024c0.001,0.116-1.127,10.563-24.145,15.271
				C316.952,223.66,318.607,215.762,318.904,205.934z M296.519,97.572c-5.074,1.153-11.574,3.594-15.064,8.738
				c-1.363,2.009-2.657,5.038-2.388,9.081c-6.003,1.796-14.435,3.081-16.342-0.854c-1.204-2.484-4.194-3.523-6.68-2.318
				c-2.485,1.204-3.523,4.195-2.318,6.68c3.077,6.348,9.189,8.225,15.344,8.225c3.745,0,7.494-0.695,10.591-1.499
				c-2.451,4.937-9.904,8.368-11.936,9.228l-31.439,2.928c-10.683-20.685-0.419-39.114,2.648-43.842
				c1.952-0.712,3.944-1.457,5.979-2.238c1.493-0.5,11.359-3.937,23.129-11.097l4.194,4.723c1.026,1.156,2.523,1.767,4.076,1.669
				C276.931,86.954,289.634,86.249,296.519,97.572z M251.975,48.038l-19.038,8.329L218.483,37.14l10.447-6.814
				C238.965,36.899,247.041,43.623,251.975,48.038z M223.522,60.486l-24.659,10.789c-2.022-6.438-4.47-11.937-7.226-16.627
				l18.451-12.033L223.522,60.486z M185.869,46.469c-11.635-13.767-26.592-17.378-39.058-17.378c-8.531,0-16.664,1.663-23.386,3.678
				C137.096,17.644,153.195,10,171.459,10c17.029,0,33.839,6.559,48.012,14.556L185.869,46.469z M197.621,82.732
				c0,0,65.554-28.688,65.583-28.703l33.612-17.317c-15.268,31.982-50.788,43.295-55.15,45.531
				c-4.362,2.236-57.924,17.778-77.693,14.162C163.973,96.405,197.602,82.741,197.621,82.732z M179.73,170.243
				c-3.904-15.706,4.109-25.887,4.462-26.324c1.254-1.512,1.508-3.617,0.648-5.383c-0.859-1.766-2.688-2.861-4.638-2.808
				c-8.137,0.232-16.236,3.811-22.159,7.212c3.211-21.06,13.007-32.001,16.398-35.232c0.643,0.016,1.298,0.024,1.97,0.024
				c11.489,0,27.345-2.297,49.041-9.182c-4.289,10.896-7.419,28.148,3.501,46.648c-1.194,4.299-16.679,16.059-34.151,21.153
				C188.78,168.107,183.323,169.428,179.73,170.243z M68.566,432.604c-1.06,0.204-3.604-0.95-7.071-3.763
				c13.608-8.043,46.452-29.165,61.577-53.787c1.445-2.353,0.709-5.432-1.644-6.877c-2.354-1.446-5.433-0.71-6.878,1.643
				C99.82,393.8,65.03,415.228,54.078,421.576c-3.393-3.857-7.127-8.812-10.951-15.021l71.831-40.888
				c2.399-1.366,3.237-4.419,1.872-6.819c-1.366-2.399-4.42-3.24-6.819-1.872l-71.828,40.887c-3.386-6.459-5.742-12.2-7.33-17.085
				c11.047-6.174,47.237-25.15,75.381-25.573c2.761-0.042,4.966-2.314,4.924-5.075c-0.042-2.762-2.32-5.006-5.074-4.924
				c-28.909,0.435-63.854,17.905-77.703,25.493c-0.664-4.455-0.358-7.233,0.352-7.989c4.199-2.053,64.446-31.093,95.278-23.541
				l13.408,23.555C128.2,392.969,72.763,429.85,68.566,432.604z M144.663,355.235l-10.517-18.473l3.573-2.034l10.517,18.474
				L144.663,355.235z M157.557,349.361l-11.775-20.688l6.941-6.562l5.521,9.7c0.003,0.006,0.005,0.012,0.008,0.018l8.491,14.915
				L157.557,349.361z M169.498,331.365l-2.193-3.853l32.785-19.087c0.985,1.179,1.977,2.315,2.97,3.409L169.498,331.365z
				 M312.059,310.024c12.108-8.45,21.618-16.943,28.94-24.566l5.577,1.801l-15.459,24.305L312.059,310.024z M373.338,294.096
				c8.3-1.266,14.99-4.846,19.913-10.68c4.665-5.528,6.885-12.144,7.916-17.756c2.76,3.941,4.928,8.654,5.351,13.632
				c0.549,6.451-1.883,12.754-7.228,18.736c-0.769,0.57-3.481,1.37-5.113,1.851c-3.593,1.06-6.986,2.061-8.985,4.406
				c-1.223,1.434-1.723,3.262-1.374,5.017c0.609,3.056,3.245,4.4,5.17,5.382c0.257,0.131,0.58,0.296,0.898,0.468l-3.309,8.773
				c-13.79,4.198-20.19-2.267-22.442-5.551L373.338,294.096z M356.406,290.434l6.793,2.194l-7.918,20.887l-12.892-1.041
				L356.406,290.434z M349.457,259.023c-9.359,14.081-38.508,50.283-102.04,72.267c-9.352-3.849-58.28-26.786-61.771-86.113
				c-1.975-33.615,6.239-56.315,13.898-69.827c15.715-5.057,34.882-16.76,38.689-26.501c0.162-0.415,0.293-0.83,0.403-1.244
				l26.856-2.501c2.33,6.544,7.44,20.396,12.732,31.48c6.536,13.248,23.727,22.638,30.729,26.027
				c0.023,13.783-3.023,23.752-4.659,28.105c-20.162,1.691-38.008-4.31-53.084-17.859c-11.975-10.761-17.666-22.516-17.746-22.683
				c-1.181-2.493-4.158-3.559-6.652-2.381c-2.497,1.178-3.566,4.158-2.389,6.655c0.257,0.544,6.436,13.453,19.799,25.573
				c10.955,9.936,28.733,21.226,53.667,20.963c7.177-0.076,15.468-1.303,17.739-1.727
				C322.746,245.965,334.767,255.328,349.457,259.023z M413.357,189.222l-83.545,48.962c-0.875-0.662-1.723-1.325-2.525-1.981
				c11.524-4.072,17.069-9.833,19.74-14.487l64.19-36.378c1.063-0.603,2.418-0.232,3.024,0.832
				C414.846,187.23,414.473,188.587,413.357,189.222z"/>
		</g>
	</g>
</g>
<g>
</g>
<g>
</g>
<g>
</g>
<g>
</g>
<g>
</g>
<g>
</g>
<g>
</g>
<g>
</g>
<g>
</g>
<g>
</g>
<g>
</g>
<g>
</g>
<g>
</g>
<g>
</g>
<g>
</g>
</svg>
